HIERARCHY
ROOT Hips
{
	OFFSET 0.000000 103.266502 0.000000
	CHANNELS 6 Xposition Yposition Zposition Xrotation Yrotation Zrotation 
	JOINT Spine
	{
		OFFSET -0.002400 12.777504 0.315300
		CHANNELS 3 Xrotation Yrotation Zrotation
		JOINT Spine1
		{
			OFFSET -0.002067 5.816869 0.032633
			CHANNELS 3 Xrotation Yrotation Zrotation
			JOINT Spine1_split
			{
				OFFSET -0.002067 5.816869 0.032633
				CHANNELS 3 Xrotation Yrotation Zrotation
				JOINT Spine2
				{
					OFFSET -0.002067 5.816869 0.032633
					CHANNELS 3 Xrotation Yrotation Zrotation
					JOINT Neck
					{
						OFFSET -0.003700 21.199493 -0.826900
						CHANNELS 3 Xrotation Yrotation Zrotation
						JOINT Head
						{
							OFFSET 0.000000 20.442200 4.834800
							CHANNELS 3 Xrotation Yrotation Zrotation
							JOINT HeadTop_End
							{
								OFFSET 0.000000 34.668396 4.968400
								CHANNELS 3 Xrotation Yrotation Zrotation
								End Site
								{
									OFFSET 0.000000 0.000000 0.000000
								}
							}
						}
					}
					JOINT LeftShoulder
					{
						OFFSET 3.288150 8.794197 -1.372250
						CHANNELS 3 Xrotation Yrotation Zrotation
						JOINT LeftShoulder_split
						{
							OFFSET 3.288150 8.794197 -1.372250
							CHANNELS 3 Xrotation Yrotation Zrotation
							JOINT LeftArm
							{
								OFFSET 11.953299 -2.279007 -0.146200
								CHANNELS 3 Xrotation Yrotation Zrotation
								JOINT LeftForeArm
								{
									OFFSET 18.448900 0.000000 0.000000
									CHANNELS 3 Xrotation Yrotation Zrotation
									JOINT LeftHand
									{
										OFFSET 29.527798 0.000000 0.000000
										CHANNELS 3 Xrotation Yrotation Zrotation
										JOINT LeftHandThumb1
										{
											OFFSET 10.739754 -2.369614 9.225399
											CHANNELS 3 Xrotation Yrotation Zrotation
											JOINT LeftHandThumb2
											{
												OFFSET 4.926170 -2.844131 2.844125
												CHANNELS 3 Xrotation Yrotation Zrotation
												JOINT LeftHandThumb3
												{
													OFFSET 4.614891 -2.664413 2.664409
													CHANNELS 3 Xrotation Yrotation Zrotation
													JOINT LeftHandThumb4
													{
														OFFSET 4.432465 -2.559082 2.559083
														CHANNELS 3 Xrotation Yrotation Zrotation
														End Site
														{
															OFFSET 0.000000 0.000000 0.000000
														}
													}
												}
											}
										}
										JOINT LeftHandIndex1
										{
											OFFSET 26.467674 0.187653 6.405298
											CHANNELS 3 Xrotation Yrotation Zrotation
											JOINT LeftHandIndex2
											{
												OFFSET 8.792900 0.000000 0.000000
												CHANNELS 3 Xrotation Yrotation Zrotation
												JOINT LeftHandIndex3
												{
													OFFSET 10.075203 0.000000 0.000000
													CHANNELS 3 Xrotation Yrotation Zrotation
													End Site
													{
														OFFSET 0.000000 0.000000 0.000000
													}
												}
											}
										}
										JOINT LeftHandMiddle1
										{
											OFFSET 25.764404 0.000000 0.000000
											CHANNELS 3 Xrotation Yrotation Zrotation
											JOINT LeftHandMiddle2
											{
												OFFSET 9.393974 0.000000 0.000000
												CHANNELS 3 Xrotation Yrotation Zrotation
												JOINT LeftHandMiddle3
												{
													OFFSET 10.771950 0.000000 0.000000
													CHANNELS 3 Xrotation Yrotation Zrotation
													End Site
													{
														OFFSET 0.000000 0.000000 0.000000
													}
												}
											}
										}
										JOINT LeftHandRing1
										{
											OFFSET 24.660927 0.144547 -6.225808
											CHANNELS 3 Xrotation Yrotation Zrotation
											JOINT LeftHandRing2
											{
												OFFSET 9.393799 0.000000 0.000000
												CHANNELS 3 Xrotation Yrotation Zrotation
												JOINT LeftHandRing3
												{
													OFFSET 9.928497 0.000000 0.000000
													CHANNELS 3 Xrotation Yrotation Zrotation
													End Site
													{
														OFFSET 0.000000 0.000000 0.000000
													}
												}
											}
										}
										JOINT LeftHandPinky1
										{
											OFFSET 23.655350 0.125290 -12.815412
											CHANNELS 3 Xrotation Yrotation Zrotation
											JOINT LeftHandPinky2
											{
												OFFSET 8.425102 0.000000 0.000000
												CHANNELS 3 Xrotation Yrotation Zrotation
												JOINT LeftHandPinky3
												{
													OFFSET 8.147003 0.000000 0.000000
													CHANNELS 3 Xrotation Yrotation Zrotation
													End Site
													{
														OFFSET 0.000000 0.000000 0.000000
													}
												}
											}
										}
									}
								}
							}
						}
					}
					JOINT RightShoulder
					{
						OFFSET -3.249400 8.794197 -1.372250
						CHANNELS 3 Xrotation Yrotation Zrotation
						JOINT RightShoulder_split
						{
							OFFSET -3.249400 8.794197 -1.372250
							CHANNELS 3 Xrotation Yrotation Zrotation
							JOINT RightArm
							{
								OFFSET -11.953299 -2.279007 -0.146200
								CHANNELS 3 Xrotation Yrotation Zrotation
								JOINT RightForeArm
								{
									OFFSET -18.448900 0.000000 0.000000
									CHANNELS 3 Xrotation Yrotation Zrotation
									JOINT RightHand
									{
										OFFSET -29.527802 0.000000 0.000000
										CHANNELS 3 Xrotation Yrotation Zrotation
										JOINT RightHandThumb1
										{
											OFFSET -10.739754 -2.369614 9.225399
											CHANNELS 3 Xrotation Yrotation Zrotation
											JOINT RightHandThumb2
											{
												OFFSET -4.926170 -2.844131 2.844125
												CHANNELS 3 Xrotation Yrotation Zrotation
												JOINT RightHandThumb3
												{
													OFFSET -4.614891 -2.664413 2.664409
													CHANNELS 3 Xrotation Yrotation Zrotation
													JOINT RightHandThumb4
													{
														OFFSET -4.432465 -2.559082 2.559083
														CHANNELS 3 Xrotation Yrotation Zrotation
														End Site
														{
															OFFSET 0.000000 0.000000 0.000000
														}
													}
												}
											}
										}
										JOINT RightHandIndex1
										{
											OFFSET -26.467674 0.187653 6.405298
											CHANNELS 3 Xrotation Yrotation Zrotation
											JOINT RightHandIndex2
											{
												OFFSET -8.792900 0.000000 0.000000
												CHANNELS 3 Xrotation Yrotation Zrotation
												JOINT RightHandIndex3
												{
													OFFSET -10.075203 0.000000 0.000000
													CHANNELS 3 Xrotation Yrotation Zrotation
													End Site
													{
														OFFSET 0.000000 0.000000 0.000000
													}
												}
											}
										}
										JOINT RightHandMiddle1
										{
											OFFSET -25.764404 0.000000 0.000000
											CHANNELS 3 Xrotation Yrotation Zrotation
											JOINT RightHandMiddle2
											{
												OFFSET -9.393974 0.000000 0.000000
												CHANNELS 3 Xrotation Yrotation Zrotation
												JOINT RightHandMiddle3
												{
													OFFSET -10.771950 0.000000 0.000000
													CHANNELS 3 Xrotation Yrotation Zrotation
													End Site
													{
														OFFSET 0.000000 0.000000 0.000000
													}
												}
											}
										}
										JOINT RightHandRing1
										{
											OFFSET -24.660927 0.144547 -6.225808
											CHANNELS 3 Xrotation Yrotation Zrotation
											JOINT RightHandRing2
											{
												OFFSET -9.393799 0.000000 0.000000
												CHANNELS 3 Xrotation Yrotation Zrotation
												JOINT RightHandRing3
												{
													OFFSET -9.928497 0.000000 0.000000
													CHANNELS 3 Xrotation Yrotation Zrotation
													End Site
													{
														OFFSET 0.000000 0.000000 0.000000
													}
												}
											}
										}
										JOINT RightHandPinky1
										{
											OFFSET -23.655350 0.125290 -12.815412
											CHANNELS 3 Xrotation Yrotation Zrotation
											JOINT RightHandPinky2
											{
												OFFSET -8.425102 0.000000 0.000000
												CHANNELS 3 Xrotation Yrotation Zrotation
												JOINT RightHandPinky3
												{
													OFFSET -8.147003 0.000000 0.000000
													CHANNELS 3 Xrotation Yrotation Zrotation
													End Site
													{
														OFFSET 0.000000 0.000000 0.000000
													}
												}
											}
										}
									}
								}
							}
						}
					}
				}
			}
		}
	}
	JOINT LeftUpLeg
	{
		OFFSET 11.394100 -6.187798 -0.413800
		CHANNELS 3 Xrotation Yrotation Zrotation
		JOINT LeftLeg
		{
			OFFSET 0.430247 -32.302673 3.732800
			CHANNELS 3 Xrotation Yrotation Zrotation
			JOINT LeftFoot
			{
				OFFSET -0.430247 -48.264931 -6.423300
				CHANNELS 3 Xrotation Yrotation Zrotation
				JOINT LeftToeBase
				{
					OFFSET 4.230900 -16.068199 23.438400
					CHANNELS 3 Xrotation Yrotation Zrotation
					JOINT LeftToe_End
					{
						OFFSET 4.510700 0.695400 19.974600
						CHANNELS 3 Xrotation Yrotation Zrotation
						End Site
						{
							OFFSET 0.000000 0.000000 0.000000
						}
					}
				}
			}
		}
	}
	JOINT RightUpLeg
	{
		OFFSET -11.333700 -6.187798 -0.413800
		CHANNELS 3 Xrotation Yrotation Zrotation
		JOINT RightLeg
		{
			OFFSET -0.430392 -32.302628 3.733000
			CHANNELS 3 Xrotation Yrotation Zrotation
			JOINT RightFoot
			{
				OFFSET 0.430392 -48.264973 -6.423500
				CHANNELS 3 Xrotation Yrotation Zrotation
				JOINT RightToeBase
				{
					OFFSET -4.230900 -16.068199 23.438400
					CHANNELS 3 Xrotation Yrotation Zrotation
					JOINT RightToe_End
					{
						OFFSET -4.510700 0.695400 19.974600
						CHANNELS 3 Xrotation Yrotation Zrotation
						End Site
						{
							OFFSET 0.000000 0.000000 0.000000
						}
					}
				}
			}
		}
	}
}
MOTION
Frames: 4
Frame Time: 0.016667
1.053060 91.451614 -0.616738 9.552027 -61.637034 10.137405 15.063815 -0.301339 -4.275751 5.872402 0.563939 -2.798214 0.000000 0.000000 0.000000 5.868713 0.648185 -2.860163 -3.632880 1.437142 3.747497 -20.005959 54.836785 2.407368 -0.000000 -0.000000 -0.000001 1.828098 -3.192689 -12.271569 0.000000 0.000000 0.000000 -39.387409 26.350501 -34.911098 0.429354 -46.808444 0.416189 -10.315064 -0.130725 0.363020 40.109931 -15.297139 -0.360512 5.639810 28.097914 11.338839 1.088574 40.896297 22.734017 -0.000000 0.000000 0.000000 6.882261 2.840063 -61.140404 8.247993 7.640045 -89.897891 -0.000001 -0.000002 0.000001 -2.345508 4.688863 -62.655210 8.754165 9.897078 -87.051328 0.000002 0.000002 0.000001 -9.042446 10.045668 -60.766185 8.524079 9.508827 -66.893029 0.000000 -0.000001 0.000000 -17.946899 14.754993 -51.485850 8.868437 8.667053 -84.811982 -0.000002 0.000002 -0.000001 0.632607 7.257351 8.700390 0.000000 0.000000 0.000000 7.936015 -9.680166 53.429910 -22.867419 36.194692 17.955442 -27.369931 10.432879 -17.813550 -2.346176 -6.100548 10.731435 2.364043 -23.806303 -8.771066 -5.012457 13.984837 5.861510 -0.000001 0.000000 0.000000 -0.054753 0.532100 0.738733 0.019782 -0.087301 5.078503 -0.000001 -0.000001 -0.000005 0.348265 -5.918510 2.583823 1.432601 -4.204223 24.052095 -0.000000 0.000000 0.000000 1.205823 -11.756060 4.154776 1.794846 -3.771873 26.865410 0.000000 0.000001 0.000002 2.126197 -19.166865 11.319982 3.354767 -2.122219 18.828543 0.000000 -0.000000 -0.000001 -39.400520 10.449807 24.281060 35.193151 -6.324780 1.197206 -1.670225 -2.664530 -16.850014 -1.836420 -0.000600 -0.000033 -0.000000 -0.000001 -0.000000 -33.417244 -17.905817 -33.264988 34.415363 3.036382 -4.033053 -7.712888 1.356607 23.067758 -0.001697 -0.000458 0.000001 -0.000000 -0.000000 -0.000000 
0.910455 91.789703 0.592944 9.356559 -61.907154 9.834494 15.060275 -0.328815 -4.262678 5.808924 0.512824 -2.771126 0.000000 0.000000 0.000000 5.805191 0.597273 -2.833459 -3.638480 1.536337 3.725360 -19.889612 54.758115 2.275294 -0.000000 -0.000000 0.000000 1.811784 -3.211879 -12.344133 0.000000 0.000000 0.000000 -39.504120 26.319844 -34.529311 1.101673 -46.417931 0.952197 -9.885019 0.827933 1.334652 40.109938 -15.297141 -0.360514 5.639812 28.097914 11.338838 1.088573 40.896290 22.734020 0.000001 -0.000004 0.000002 6.883838 2.854628 -61.141948 8.247996 7.640049 -89.897891 0.000001 -0.000002 0.000001 -2.345662 4.688768 -62.645259 8.754101 9.897082 -87.051335 -0.000003 -0.000000 -0.000000 -9.042450 10.045666 -60.766185 8.524014 9.508679 -66.885809 -0.000004 -0.000002 0.000004 -17.946899 14.754991 -51.485850 8.868238 8.667101 -84.803847 -0.000001 -0.000000 -0.000000 0.692439 7.427213 8.935632 0.000000 0.000000 0.000000 5.481159 -8.784166 52.938775 -21.606684 32.865648 15.936068 -24.516496 8.994985 -17.062800 -4.116510 -6.706650 9.307954 1.886936 -23.619578 -9.140359 -5.263924 12.857948 5.626029 0.000000 -0.000000 0.000002 -0.010637 0.533228 -1.327960 0.017474 -0.087299 5.720677 -0.000001 -0.000000 -0.000001 0.409168 -5.946827 2.284656 1.424240 -4.181315 21.464418 -0.000001 0.000000 0.000002 0.746804 -11.971089 3.731572 1.819253 -3.840927 25.204783 0.000000 0.000000 -0.000001 1.682342 -18.956616 9.983746 3.331150 -2.133629 16.242125 -0.000000 -0.000000 0.000001 -38.846523 10.938317 23.956054 35.618030 -6.157299 1.210526 -2.578037 -2.671230 -16.256415 -1.836420 -0.000604 -0.000033 -0.000000 -0.000002 -0.000000 -32.100926 -16.357338 -32.704838 34.060586 1.020604 -3.768151 -6.161676 0.771016 23.060308 -1.203070 -0.026721 0.534002 -0.000000 -0.000000 0.000000 
0.766477 92.130051 1.804162 9.154141 -62.178730 9.527350 15.048794 -0.403876 -4.220478 5.633808 0.369641 -2.696469 0.000000 0.000000 0.000000 5.629853 0.454785 -2.759862 -3.655640 1.814224 3.662546 -19.581884 54.532360 1.920067 0.000000 -0.000000 0.000000 1.851091 -3.205579 -12.196507 0.000000 0.000000 0.000000 -39.716607 26.246979 -34.186517 2.759072 -45.717424 2.309614 -9.601696 1.846976 2.522824 40.109931 -15.297143 -0.360515 5.639812 28.097916 11.338842 1.088574 40.896297 22.734018 -0.000000 -0.000001 0.000001 6.885308 2.867593 -61.143239 8.247991 7.640045 -89.897891 -0.000002 -0.000001 0.000000 -2.345726 4.688752 -62.636359 8.754113 9.897088 -87.051246 -0.000003 -0.000001 0.000000 -9.042446 10.045666 -60.766185 8.523958 9.508536 -66.879320 -0.000000 -0.000001 0.000001 -17.946896 14.754990 -51.485853 8.868059 8.667128 -84.796682 -0.000000 0.000001 -0.000001 0.772925 7.546830 9.119207 0.000000 0.000000 0.000000 2.943612 -7.711115 52.563449 -20.404009 29.266090 13.879047 -21.562929 7.631778 -16.206044 -6.237926 -7.289041 7.642136 1.335642 -23.383224 -9.554174 -5.535009 11.541944 5.314247 -0.000000 -0.000000 0.000002 0.036203 0.531754 -3.691429 0.018932 -0.086971 6.453125 0.000001 -0.000001 -0.000001 0.478646 -5.980253 1.942309 1.420324 -4.160112 18.500766 -0.000001 0.000001 0.000003 0.223187 -12.207952 3.248204 1.839690 -3.913921 23.324293 0.000000 -0.000000 -0.000002 1.189569 -18.704714 8.461778 3.307104 -2.146751 13.290746 0.000000 -0.000000 0.000001 -38.224399 11.430471 23.599446 35.953849 -5.953233 1.226756 -3.459657 -2.692143 -15.677644 -1.836420 -0.000600 -0.000033 -0.000000 -0.000002 -0.000000 -30.878165 -14.781742 -32.222322 33.821867 -1.034073 -3.497889 -4.566493 0.165647 22.997167 -2.463987 -0.054743 1.093928 0.000000 -0.000000 -0.000000 
0.620491 92.458153 3.010632 8.956679 -62.443864 9.223545 15.027779 -0.517727 -4.154462 5.371685 0.150692 -2.585290 0.000000 0.000000 0.000000 5.367418 0.236849 -2.650280 -3.683371 2.240245 3.564175 -19.144240 54.178307 1.405936 -0.000000 0.000000 0.000001 1.843146 -3.270753 -12.215996 0.000000 0.000000 0.000000 -40.079045 26.019771 -33.554196 4.817951 -44.880473 3.995153 -9.298819 2.592856 3.380241 40.109938 -15.297143 -0.360509 5.639814 28.097914 11.338841 1.088575 40.896301 22.734020 -0.000001 0.000001 0.000003 6.886539 2.878933 -61.144338 8.247993 7.640046 -89.897884 -0.000001 -0.000001 0.000003 -2.345669 4.688658 -62.628477 8.754121 9.897093 -87.051157 -0.000000 -0.000003 0.000001 -9.042445 10.045663 -60.766185 8.523922 9.508403 -66.873597 -0.000002 -0.000001 0.000000 -17.946899 14.754988 -51.485853 8.867861 8.667199 -84.790337 0.000001 -0.000002 -0.000002 0.851981 7.665276 9.321646 0.000000 0.000000 0.000000 0.526172 -6.652019 52.259082 -19.353570 25.785885 11.962598 -18.611741 6.402538 -15.306790 -8.268314 -7.739937 6.081485 0.815473 -23.164129 -9.941024 -5.806306 10.322215 4.998312 -0.000000 -0.000000 -0.000001 0.081630 0.527681 -5.928366 0.019951 -0.086712 7.147200 -0.000001 0.000001 -0.000001 0.550276 -6.015968 1.586678 1.421997 -4.149999 15.428275 -0.000001 -0.000000 0.000000 -0.337140 -12.451469 2.730641 1.855725 -3.992484 21.326393 -0.000000 0.000000 0.000002 0.689147 -18.427459 6.871375 3.285338 -2.163372 10.191942 -0.000001 0.000000 0.000004 -37.572553 11.906944 23.221345 36.242688 -5.720297 1.245317 -4.323996 -2.724793 -15.117125 -1.836420 -0.000602 -0.000033 -0.000000 0.000002 0.000000 -29.758328 -13.078106 -31.742628 33.780958 -3.118514 -3.217910 -2.968134 -0.445153 22.833012 -3.681805 -0.086179 1.520989 -0.000000 0.000000 0.000000 
